/* XPM */
static char * H:\WebDev Home\Growers\Wallet Source\share\pixmaps\growerscoin80_xpm[] = {
"80 80 31 1",
" 	c None",
".	c #75AD42",
"+	c #75AC42",
"@	c #76AE42",
"#	c #75AE42",
"$	c #74AC42",
"%	c #73AA41",
"&	c #74AB41",
"*	c #76AF43",
"=	c #74AB42",
"-	c #7FB157",
";	c #80B259",
">	c #73AB41",
",	c #77AF43",
"'	c #77B043",
")	c #72A941",
"!	c #78B244",
"~	c #78B144",
"{	c #76AE43",
"]	c #71A740",
"^	c #74AC41",
"/	c #72A940",
"(	c #72AA40",
"_	c #72A840",
":	c #6EA33E",
"<	c #77AE46",
"[	c #78AF47",
"}	c #78AF46",
"|	c #79AF48",
"1	c #77B144",
"2	c #77AD48",
"                                                                                ",
"                                                                                ",
"                                       .+                                       ",
"                                       @@                                       ",
"                                       ##                                       ",
"                                      $..$                                      ",
"                                     %....&                                     ",
"                                     .....@                                     ",
"                                     ......                                     ",
"                                    ........                                    ",
"                                    .......@                                    ",
"            &&&&&&&&&&&&&&&&&&&&&   *......*   &&&&&&&&&&&=-;;;;;;;;            ",
"           >....................., '........, %.....................)           ",
"           >.&@..................! @........* ~..................@..)           ",
"           >.. .@###############@  .........{  ################@. ..)           ",
"           >.@                    $...........                    @.)           ",
"           >..@ *                 $..........&                 , @..)           ",
"           >..@ .@.                ..........]               #@& @..)           ",
"           >..@  @.#@{            +..........=            .@@.@  @..)           ",
"           >..@   ....@@           ..........           @@....%  @..)           ",
"           >..@   #......@         @........@         @#.....#   @..)           ",
"           >..@   @.......@@       ..........       #........{   @..)           ",
"           >..@    #........{      #........#      .........#    @..)           ",
"           >..@    @.........@     .........@     *.........@    @..)           ",
"           >..@     ...........    @.........    ^..........=    @..)           ",
"           >..@     @..........^   ^........+   ...........@     @..)           ",
"           >..@     *..........#    @......#    #...........     @..)           ",
"           >..@      #...........   @......@   ............      @..)           ",
"           >..@      .@..........>  @......#  $..........@.      @..)           ",
"           >..@        @..........   #....#   ..........@        @..)           ",
"           >..@         @.........# $......$ #.........@         @..)           ",
"           >..@          .........$.........#.........@          @..)           ",
"           >..*           %..........................&           ,..)           ",
"           .*/              .........@>  &##........>             &*&           ",
"               &% %           #....@+       @.....           ^ %^               ",
"            @.......@.@$@&     ...@          @..#     &.$@.@.......@            ",
"         .+...............@@. $...            #... @@@...............+.         ",
"      /&#....................@...#            @...#....................@^)      ",
"     %...........................^            $...........................&     ",
"  +#@............................              @...........................@@^  ",
" ^#@.............................              @............................@.. ",
"     ............................(             ............................     ",
"      ............................            ...........................^      ",
"         .,#................@ ...#            @..^ @.................*#         ",
"           _@{@.....#..@@.     @..#          @..@     $@##.......#*@&           ",
"               *&/$/ /        +....#        *....$        ^  $^&@]              ",
"           %$:              &.......@.    .@.......^               $/           ",
"           >...            @...........@@#...........            @+.)           ",
"           >..@          .#........@........@........#@          @..)           ",
"           >..@         +.........^ .......+ ...........         @..)           ",
"           >..@        @.........+   #....@   ..........@        @..)           ",
"           >..@       ............  #.......  ^..........@       @..)           ",
"           >..@      @...........   @......#   @..........#      @..)           ",
"           >..@      @..........    {......#    #..........@     @..)           ",
"           >..@     @..........@   &........^   #..........#     @..)           ",
"           >..@     @.........+    @........@    ...........     @..)           ",
"           &..@    @.........@     +........@     {.........@    @..%           ",
"           <..@    #........{      @........#      ..........    @..[           ",
"           }..@   .........#.      ..........=      ##........   @..|           ",
"           }..@   {......@.        @........@         @#.....#   @..|           ",
"           }..@   @....@           #.........           {....#   @..|           ",
"           }..@  ..#@{            ............            ###.@  @..|           ",
"           }..@  @@                ..........]               @@& @..|           ",
"           }..@ *&                =..........=                 ' ...|           ",
"           }..                    &..........$                    #.|           ",
"           }.@  @'''''''''''''''1 *.........## ''''''''''''''''*  @.|           ",
"           }.$.#................./ .........*  ..................@/.|           ",
"           }.....................* .........* &.....................|           ",
"            *********************~ @#......@/ .***********{222222222            ",
"                                    .......,                                    ",
"                                    ^.......                                    ",
"                                     ......                                     ",
"                                     ......                                     ",
"                                     >....+                                     ",
"                                      $..+                                      ",
"                                       @.                                       ",
"                                       @@                                       ",
"                                       $#                                       ",
"                                        $                                       ",
"                                                                                "};
