/* XPM */
static char * H:\GrowersCoin\GrowersCoin\share\pixmaps\growerscoin80_xpm[] = {
"80 80 2 1",
" 	c None",
".	c #3E6C33",
"                                                                                ",
"                                                                                ",
"                                       .                                        ",
"                                       ..                                       ",
"                                       ..                                       ",
"                                       ..                                       ",
"                                      ....                                      ",
"                                     ......                                     ",
"                                     ......                                     ",
"                                    ........                                    ",
"                                    ........                                    ",
"                                    ........                                    ",
"            ...................... .......... ......................            ",
"            ...................... .......... ......................            ",
"            .. ..................  ..........  .................. ..            ",
"            ...  ................ ............ ................  ...            ",
"            ... .                 ............                   ...            ",
"            .... ..                ..........                .. ....            ",
"            .... ...              ...........               ... ....            ",
"            ....  ......           ..........           ......  ....            ",
"            ....  ........         ..........         ........  ....            ",
"            ....  .........        ..........        .........  ....            ",
"            ....   ..........      ..........      ..........   ....            ",
"            ....   ...........     ..........     ...........   ....            ",
"            ....    ...........    ..........    ...........    ....            ",
"            ....    ...........    ..........    ...........    ....            ",
"            ....    ............    ........    ...........     ....            ",
"            ....     ............   ........   ............     ....            ",
"            ....     .............  ........  .............     ....            ",
"            ....       ...........   ......   ...........       ....            ",
"            ....        ...........  ......  ...........        ....            ",
"            ....         ..............................         ....            ",
"            ....          ............................          ....            ",
"            ..              ........................              ..            ",
"               ..             .......      .......             ..               ",
"            ..............     ....          ....     ..............            ",
"         ....................  ....          ....  ....................         ",
"       ...........................            ...........................       ",
"      ............................            ............................      ",
"   ..............................             ...............................   ",
"  ...............................             ................................  ",
"     .............................            .............................     ",
"       ...........................            ...........................       ",
"         .................... ....            .... ....................         ",
"            ..............     ....          ....     ..............            ",
"               .. .           ......        ......           . ..               ",
"            ..              ...........  ...........              ..            ",
"            ....           ..........................           ....            ",
"            ....         ..............................         ....            ",
"            ....        ........... ........ ...........        ....            ",
"            ....       ...........   ......   ...........       ....            ",
"            ....     .............  ........  .............     ....            ",
"            ....     ............   ........   ............     ....            ",
"            ....     ...........    ........    ...........     ....            ",
"            ....    ............   ..........   ............    ....            ",
"            ....    ...........    ..........    ...........    ....            ",
"            ....   ...........     ..........     ...........   ....            ",
"            ....   ..........      ..........      ..........   ....            ",
"            ....  ..........       ..........      ...........  ....            ",
"            ....  ........         ..........         ........  ....            ",
"            ....  ......           ..........           ......  ....            ",
"            .... .....            ............            ..... ....            ",
"            .... ..                ..........                .. ....            ",
"            ... .                 ............                 . ...            ",
"            ...  ................ ............ ................  ...            ",
"            .. ..................  ..........  .................. ..            ",
"            ...................... .......... ......................            ",
"            ...................... .......... ......................            ",
"                                    ........                                    ",
"                                    ........                                    ",
"                                    ........                                    ",
"                                     ......                                     ",
"                                     ......                                     ",
"                                      ....                                      ",
"                                       ..                                       ",
"                                       ..                                       ",
"                                       ..                                       ",
"                                       ..                                       ",
"                                                                                ",
"                                                                                "};
