/* XPM */
static char * H:\WebDev Home\Growers\Wallet Source\share\pixmaps\growerscoin32_xpm[] = {
"32 32 11 1",
" 	c None",
".	c #75AD42",
"+	c #75AC42",
"@	c #75AE42",
"#	c #76AE42",
"$	c #74AC42",
"%	c #73AA41",
"&	c #73A941",
"*	c #76AE43",
"=	c #76AD44",
"-	c #77AE48",
"                                ",
"                                ",
"               ..               ",
"               ..               ",
"              ....              ",
"     +....... @..# ........     ",
"     .        ....        .     ",
"     . ..     ....     .. .     ",
"     . ....   ....   .... .     ",
"     .  ....  ....  ....  .     ",
"     .  ..... .... .....  .     ",
"     .   ....$...++....   .     ",
"     .    ............    .     ",
"     %     +...  ...$     &     ",
"    +...... +.    .. ......$    ",
"  ...........      ...........  ",
"  ...........      ............ ",
"    +#........    ........#+    ",
"           +...  ....           ",
"     .    ............    @     ",
"     .   ....+ ..++....   .     ",
"     .  ..... .... .....  .     ",
"     .  ....  ...@  ....  .     ",
"     . ....   ....   .... .     ",
"     . ..     ....     .. .     ",
"     .        ....        .     ",
"     ..****** ...# ******@+     ",
"     ........ .... ....=---     ",
"               ..               ",
"               ..               ",
"                                ",
"                                "};
