/* XPM */
static char * H:\GrowersCoin\GrowersCoin\share\pixmaps\growerscoin32_xpm[] = {
"32 32 2 1",
" 	c None",
".	c #3E6C33",
"                                ",
"                                ",
"               ..               ",
"               ..               ",
"              ....              ",
"     ........ .... ........     ",
"     .        ....        .     ",
"     . ..     ....     .. .     ",
"     . ....   ....   .... .     ",
"     .  ....  ....  ....  .     ",
"     .  ..... .... .....  .     ",
"     .   .... .........   .     ",
"     .    ............    .     ",
"           ....  ....           ",
"    ....... ..    .. .......    ",
"  ...........      ...........  ",
"  ...........      ...........  ",
"    ..........    ..........    ",
"           ....  ....           ",
"     .    ............    .     ",
"     .   ........ .....   .     ",
"     .  ..... .... .....  .     ",
"     .  ....  ....  ....  .     ",
"     . ....   ....   .... .     ",
"     . ..     ....     .. .     ",
"     .        ....        .     ",
"     ........ .... ........     ",
"              ....              ",
"               ..               ",
"               ..               ",
"                                ",
"                                "};
